<svg width="35" height="35" viewBox="0 0 35 35" fill="none" xmlns="http://www.w3.org/2000/svg">
<g filter="url(#filter0_d)">
<rect x="5" y="5" width="25" height="25" rx="10" fill="#00f729"/>
</g>
<path d="M16.664 19.216C16.664 18.784 16.76 18.428 16.952 18.148C17.152 17.86 17.44 17.548 17.816 17.212C18.104 16.956 18.316 16.736 18.452 16.552C18.596 16.36 18.668 16.144 18.668 15.904C18.668 15.568 18.532 15.296 18.26 15.088C17.988 14.88 17.624 14.776 17.168 14.776C16.304 14.776 15.652 15.084 15.212 15.7L14.048 14.944C14.392 14.472 14.836 14.112 15.38 13.864C15.924 13.608 16.564 13.48 17.3 13.48C18.196 13.48 18.908 13.676 19.436 14.068C19.972 14.452 20.24 14.984 20.24 15.664C20.24 15.992 20.184 16.28 20.072 16.528C19.968 16.776 19.84 16.988 19.688 17.164C19.536 17.332 19.336 17.528 19.088 17.752C18.784 18.024 18.556 18.264 18.404 18.472C18.26 18.68 18.188 18.928 18.188 19.216H16.664ZM17.432 22.084C17.152 22.084 16.92 21.996 16.736 21.82C16.56 21.636 16.472 21.412 16.472 21.148C16.472 20.884 16.56 20.664 16.736 20.488C16.92 20.312 17.152 20.224 17.432 20.224C17.704 20.224 17.928 20.312 18.104 20.488C18.288 20.664 18.38 20.884 18.38 21.148C18.38 21.412 18.288 21.636 18.104 21.82C17.928 21.996 17.704 22.084 17.432 22.084Z" fill="white"/>
<defs>
<filter id="filter0_d" x="0" y="0" width="35" height="35" filterUnits="userSpaceOnUse" color-interpolation-filters="sRGB">
<feFlood flood-opacity="0" result="BackgroundImageFix"/>
<feColorMatrix in="SourceAlpha" type="matrix" values="0 0 0 0 0 0 0 0 0 0 0 0 0 0 0 0 0 0 127 0"/>
<feOffset/>
<feGaussianBlur stdDeviation="2.5"/>
<feColorMatrix type="matrix" values="0 0 0 0 0.360784 0 0 0 0 0.960784 0 0 0 0 0.231373 0 0 0 0.5 0"/>
<feBlend mode="normal" in2="BackgroundImageFix" result="effect1_dropFreshMix"/>
<feBlend mode="normal" in="SourceGraphic" in2="effect1_dropFreshMix" result="shape"/>
</filter>
</defs>
</svg>
