<svg viewBox="0 0 70 54" fill="none" xmlns="http://www.w3.org/2000/svg">
<path d="M7.10516 53.2887H0C0 41.5165 9.54326 31.9732 21.3155 31.9732C33.0877 31.9732 42.6309 41.5165 42.6309 53.2887H35.5258C35.5258 45.4405 29.1636 39.0784 21.3155 39.0784C13.4673 39.0784 7.10516 45.4405 7.10516 53.2887ZM49.7148 40.5349L40.1015 30.943L45.1177 25.9054L49.7077 30.4953L64.9838 15.2477L70 20.2781L49.7077 40.5278L49.7148 40.5349ZM21.3155 28.4206C13.4673 28.4206 7.10516 22.0585 7.10516 14.2103C7.10516 6.36217 13.4673 0 21.3155 0C29.1636 0 35.5258 6.36217 35.5258 14.2103C35.516 22.0544 29.1595 28.4108 21.3155 28.4206ZM21.3155 7.10516C17.4339 7.10909 14.2739 10.2273 14.2182 14.1085C14.1626 17.9897 17.232 21.1972 21.1119 21.3123C24.9917 21.4275 28.246 18.4077 28.4206 14.53V15.9511V14.2103C28.4206 10.2862 25.2395 7.10516 21.3155 7.10516Z" fill="#6FCF97"/>
</svg>
