<svg viewBox="0 0 40 45" fill="none" xmlns="http://www.w3.org/2000/svg">
<path d="M31.1111 44.4445H8.88889C6.43429 44.4445 4.44444 42.4546 4.44444 40V11.1111H0V6.66667H8.88889V4.44445C8.88889 1.98985 10.8787 0 13.3333 0H26.6667C29.1213 0 31.1111 1.98985 31.1111 4.44445V6.66667H40V11.1111H35.5556V40C35.5556 42.4546 33.5657 44.4445 31.1111 44.4445ZM8.88889 11.1111V40H31.1111V11.1111H8.88889ZM13.3333 4.44445V6.66667H26.6667V4.44445H13.3333ZM26.6667 35.5556H22.2222V15.5556H26.6667V35.5556ZM17.7778 35.5556H13.3333V15.5556H17.7778V35.5556Z" fill="#E5FFFF"/>
</svg>
