<svg viewBox="0 0 150 180" fill="none" xmlns="http://www.w3.org/2000/svg">
<g style="mix-blend-mode:overlay">
<path fill-rule="evenodd" clip-rule="evenodd" d="M75.0886 0.000461029C100.685 0.000461029 121.564 20.2392 122.591 45.584L122.631 47.5435L122.631 61.6769C138.563 67.2078 150 82.3505 150 100.169V138.635C150 161.137 131.763 179.371 109.265 179.371H40.7354C18.2374 179.371 0 161.137 0 138.635V100.169C0 82.348 11.4397 67.2036 27.3756 61.6746L27.3756 47.3346C27.4905 21.0746 48.863 -0.113933 75.0886 0.000461029ZM109.178 47.5435L109.178 59.4337H40.8285L40.8285 47.3641L40.8805 45.6124C41.8719 27.6283 56.8226 13.3738 75.0592 13.4533C93.9117 13.4534 109.178 28.7202 109.178 47.5435ZM109.265 72.8904H40.7359C25.6672 72.8904 13.4534 85.102 13.4534 100.173V138.639C13.4534 153.71 25.6672 165.922 40.7359 165.922H109.265C124.334 165.922 136.548 153.71 136.548 138.639V100.173C136.548 85.102 124.334 72.8904 109.265 72.8904ZM81.6686 108.533C81.2232 105.25 78.4089 102.72 75.0035 102.72C71.2886 102.72 68.2771 105.731 68.2771 109.446L68.2771 129.365L68.3385 130.278C68.7839 133.561 71.5982 136.092 75.0035 136.092C78.7184 136.092 81.73 133.08 81.73 129.365L81.73 109.446L81.6686 108.533Z" fill="#F5F5F5"/>
</g>
</svg>
