<svg width="99" height="115" viewBox="0 0 99 115" fill="none" xmlns="http://www.w3.org/2000/svg">
<path opacity="0.15" d="M74.6313 64.8567L73.6543 64.9065L73.5139 66.0531L74.6277 65.8567L74.6313 64.8567ZM93.0669 61.606L94.0517 61.4323L94.0552 60.4323L93.0704 60.606L93.0669 61.606ZM93.011 77.3019L93.0074 78.3019L93.9923 78.1282L93.9958 77.1282L93.011 77.3019ZM72.7318 80.8777L72.7354 79.8777L71.866 80.031L71.7551 80.9259L72.7318 80.8777ZM69.8136 104.418L69.81 105.418L70.6794 105.264L70.7903 104.369L69.8136 104.418ZM53.7888 107.243L52.812 107.291L52.6697 108.44L53.7852 108.243L53.7888 107.243ZM56.7071 83.7033L57.6838 83.655L57.8262 82.5066L56.7106 82.7033L56.7071 83.7033ZM35.8606 87.379L35.8642 86.3791L34.9948 86.5323L34.8839 87.4273L35.8606 87.379ZM32.9424 110.919L32.9388 111.919L33.8082 111.766L33.9191 110.871L32.9424 110.919ZM17.0594 113.72L16.0826 113.768L15.9403 114.916L17.0558 114.72L17.0594 113.72ZM19.9777 90.1796L20.9544 90.1314L21.0968 88.9829L19.9812 89.1796L19.9777 90.1796ZM1.40025 93.4553L0.415441 93.629L0.411881 94.629L1.39669 94.4553L1.40025 93.4553ZM1.45613 77.7594L1.45969 76.7594L0.474879 76.9331L0.471319 77.9331L1.45613 77.7594ZM21.8771 74.1587L21.8735 75.1587L22.7389 75.0061L22.8533 74.115L21.8771 74.1587ZM24.9382 50.3057L25.9144 50.2621L26.0625 49.1081L24.9418 49.3057L24.9382 50.3057ZM6.36079 53.5814L5.37598 53.7551L5.37242 54.755L6.35723 54.5814L6.36079 53.5814ZM6.41667 37.8855L6.42023 36.8855L5.43542 37.0592L5.43186 38.0592L6.41667 37.8855ZM26.8376 34.2847L26.8341 35.2847L27.7035 35.1314L27.8144 34.2365L26.8376 34.2847ZM29.7559 10.7448L29.7595 9.74478L28.8901 9.89807L28.7792 10.793L29.7559 10.7448ZM45.6389 7.94417L46.6157 7.8959L46.758 6.74747L45.6425 6.94418L45.6389 7.94417ZM42.7206 31.4841L41.7439 31.5324L41.6015 32.6808L42.7171 32.4841L42.7206 31.4841ZM63.567 27.8084L63.5635 28.8083L64.4328 28.6551L64.5438 27.7601L63.567 27.8084ZM66.4853 4.26839L66.4889 3.26839L65.6195 3.42169L65.5085 4.31666L66.4853 4.26839ZM82.3683 1.46779L83.345 1.41952L83.4874 0.27109L82.3718 0.467796L82.3683 1.46779ZM79.45 25.0078L78.4733 25.056L78.3309 26.2045L79.4465 26.0077L79.45 25.0078ZM97.8856 21.7571L98.8704 21.5742L98.865 20.585L97.8892 20.7571L97.8856 21.7571ZM97.9716 37.428L97.968 38.4279L98.9619 38.2527L98.9564 37.2451L97.9716 37.428ZM77.5506 41.0287L77.5541 40.0287L76.6834 40.1823L76.5736 41.0785L77.5506 41.0287ZM58.6065 67.6823L58.6029 68.6823L59.4683 68.5297L59.5827 67.6386L58.6065 67.6823ZM61.6676 43.8293L62.6438 43.7857L62.7919 42.6317L61.6712 42.8293L61.6676 43.8293ZM40.8212 47.5051L40.8247 46.5051L39.9594 46.6577L39.845 47.5488L40.8212 47.5051ZM37.7601 71.3581L36.7839 71.4017L36.6358 72.5557L37.7565 72.3581L37.7601 71.3581ZM74.6277 65.8567L93.0633 62.606L93.0704 60.606L74.6348 63.8567L74.6277 65.8567ZM92.0821 61.7796L92.0262 77.4755L93.9958 77.1282L94.0517 61.4323L92.0821 61.7796ZM93.0146 76.3019L72.7354 79.8777L72.7283 81.8777L93.0074 78.3019L93.0146 76.3019ZM71.7551 80.9259L68.8368 104.466L70.7903 104.369L73.7086 80.8294L71.7551 80.9259ZM69.8171 103.418L53.7923 106.243L53.7852 108.243L69.81 105.418L69.8171 103.418ZM54.7655 107.195L57.6838 83.655L55.7303 83.7515L52.812 107.291L54.7655 107.195ZM56.7106 82.7033L35.8642 86.3791L35.8571 88.379L56.7035 84.7033L56.7106 82.7033ZM34.8839 87.4273L31.9656 110.967L33.9191 110.871L36.8374 87.3308L34.8839 87.4273ZM32.9459 109.919L17.063 112.72L17.0558 114.72L32.9388 111.919L32.9459 109.919ZM18.0362 113.671L20.9544 90.1314L19.0009 90.2279L16.0826 113.768L18.0362 113.671ZM19.9812 89.1796L1.40381 92.4553L1.39669 94.4553L19.9741 91.1796L19.9812 89.1796ZM2.38506 93.2817L2.44093 77.5858L0.471319 77.9331L0.415441 93.629L2.38506 93.2817ZM1.45257 78.7594L21.8735 75.1587L21.8807 73.1587L1.45969 76.7594L1.45257 78.7594ZM22.8533 74.115L25.9144 50.2621L23.962 50.3494L20.9009 74.2023L22.8533 74.115ZM24.9418 49.3057L6.36435 52.5814L6.35723 54.5814L24.9346 51.3057L24.9418 49.3057ZM7.3456 53.4078L7.40148 37.7119L5.43186 38.0592L5.37598 53.7551L7.3456 53.4078ZM6.41311 38.8855L26.8341 35.2847L26.8412 33.2847L6.42023 36.8855L6.41311 38.8855ZM27.8144 34.2365L30.7327 10.6965L28.7792 10.793L25.8609 34.333L27.8144 34.2365ZM29.7524 11.7448L45.6353 8.94417L45.6425 6.94418L29.7595 9.74478L29.7524 11.7448ZM44.6621 7.99245L41.7439 31.5324L43.6974 31.4359L46.6157 7.8959L44.6621 7.99245ZM42.7171 32.4841L63.5635 28.8083L63.5706 26.8084L42.7242 30.4841L42.7171 32.4841ZM64.5438 27.7601L67.4621 4.22011L65.5085 4.31666L62.5903 27.8566L64.5438 27.7601ZM66.4817 5.26838L82.3647 2.46778L82.3718 0.467796L66.4889 3.26839L66.4817 5.26838ZM81.3915 1.51606L78.4733 25.056L80.4268 24.9595L83.345 1.41952L81.3915 1.51606ZM79.4465 26.0077L97.8821 22.7571L97.8892 20.7571L79.4536 24.0078L79.4465 26.0077ZM96.9008 21.9399L96.9868 37.6108L98.9564 37.2451L98.8704 21.5742L96.9008 21.9399ZM97.9751 36.428L77.5541 40.0287L77.547 42.0287L97.968 38.4279L97.9751 36.428ZM76.5736 41.0785L73.6543 64.9065L75.6082 64.8069L78.5275 40.9789L76.5736 41.0785ZM59.5827 67.6386L62.6438 43.7857L60.6914 43.873L57.6303 67.7259L59.5827 67.6386ZM61.6712 42.8293L40.8247 46.5051L40.8176 48.5051L61.664 44.8293L61.6712 42.8293ZM39.845 47.5488L36.7839 71.4017L38.7363 71.3144L41.7974 47.4615L39.845 47.5488ZM37.7565 72.3581L58.6029 68.6823L58.61 66.6823L37.7636 70.3581L37.7565 72.3581Z" fill="#F5F5F5"/>
</svg>
