<svg width="250" height="250" viewBox="0 0 250 250" fill="none" xmlns="http://www.w3.org/2000/svg">
<g clip-path="url(#clip0)">
<path d="M142.909 61.9144L121.599 82.5518L168.831 128.292L190.141 107.656L194.883 92.5338L158.524 57.3223L142.909 61.9144ZM164.895 101.611L149.151 86.3637L157.023 78.7396L172.767 93.9868L164.895 101.611Z" fill="white"/>
<path d="M29.998 194.131L53.6143 217.002L86.1721 185.472L62.5558 162.602L29.998 194.131Z" fill="white"/>
<path d="M90.1095 113.047L68.7998 133.683L64.0576 148.806L100.417 184.016L116.032 179.425L137.343 158.787L125.534 147.352L149.151 124.482L125.534 101.611L101.918 124.482L90.1095 113.047ZM101.918 162.599L86.1737 147.352L94.0457 139.728L109.79 154.976L101.918 162.599Z" fill="white"/>
<path d="M196.382 33.0006L172.766 55.8711L196.381 78.7411L219.998 55.8706L196.382 33.0006Z" fill="white"/>
</g>
<defs>
<clipPath id="clip0">
<rect width="190" height="184" fill="white" transform="translate(30 33)"/>
</clipPath>
</defs>
</svg>
