<svg width="250" height="250" viewBox="0 0 250 250" fill="none" xmlns="http://www.w3.org/2000/svg">
<g clip-path="url(#clip0)">
<path d="M106.25 82.0845C107.209 82.0845 108.169 81.6652 108.901 80.8271L116.401 72.2439C117.866 70.5674 117.866 67.8516 116.401 66.1754C114.936 64.4988 112.563 64.4988 111.099 66.1754L103.599 74.7586C102.134 76.4352 102.134 79.151 103.599 80.8271C104.331 81.6656 105.29 82.0845 106.25 82.0845Z" fill="white"/>
<path d="M126.099 66.1754L103.599 91.9254C102.134 93.602 102.134 96.3178 103.599 97.994C104.331 98.832 105.291 99.2513 106.25 99.2513C107.21 99.2513 108.169 98.832 108.902 97.994L131.402 72.2439C132.867 70.5674 132.867 67.8516 131.402 66.1754C129.937 64.4988 127.564 64.4988 126.099 66.1754Z" fill="white"/>
<path d="M212.531 45.3786C208.547 36.2546 200.529 30.584 191.61 30.584H118.942C105.028 30.584 91.7465 37.4069 82.5019 49.3099L47.2887 94.6407C39.3444 104.863 34.971 118.027 35.0001 132.26L41.2745 187.649C42.1717 195.587 45.3913 203.081 50.3395 208.739C56.3572 215.625 64.3567 219.418 72.8687 219.418H199.998C208.272 219.418 215 211.718 215 202.251V57.3483C215 53.2158 214.147 49.0753 212.531 45.3786ZM64.1285 111.744L99.3361 66.4179C104.317 60.0098 111.469 56.334 118.958 56.334H191.614C191.962 56.334 192.252 56.5352 192.501 57.3483V125.001H57.8004C58.4891 120.458 60.4114 116.539 64.1285 111.744ZM196.25 185.084H61.2503C59.1774 185.084 57.5001 183.164 57.5001 180.792C57.5001 178.42 59.1774 176.501 61.2503 176.501H196.25C198.323 176.501 200 178.42 200 180.793C200 183.165 198.323 185.084 196.25 185.084ZM196.25 159.334H173.75C171.677 159.334 170 157.414 170 155.042C170 152.67 171.677 150.75 173.75 150.75H196.25C198.323 150.75 200 152.67 200 155.042C200 157.415 198.323 159.334 196.25 159.334Z" fill="white"/>
</g>
<defs>
<clipPath id="clip0">
<rect width="180" height="206" fill="white" transform="translate(35 22)"/>
</clipPath>
</defs>
</svg>
