<svg width="250" height="250" viewBox="0 0 250 250" fill="none" xmlns="http://www.w3.org/2000/svg">
<path d="M148.044 205.008V211.26C148.044 216.236 144.591 220.375 140.099 221.08L138.643 226.76C137.853 229.842 135.232 232 132.196 232H117.762C114.726 232 112.105 229.842 111.315 226.76L109.901 221.08C105.367 220.331 101.915 216.236 101.915 211.216V204.964C101.915 201.617 104.452 198.931 107.613 198.931H142.345C145.506 198.975 148.044 201.661 148.044 205.008ZM174.789 120.729C174.789 134.951 169.465 147.853 160.813 157.32C154.241 164.542 149.999 173.744 148.584 183.564C147.961 187.791 144.508 190.917 140.432 190.917H109.527C105.492 190.917 101.998 187.835 101.416 183.608C99.9597 173.788 95.6754 164.453 89.1033 157.276C80.6179 147.941 75.3353 135.26 75.2105 121.301C74.9194 91.9753 96.9648 68.2416 124.667 68.0214C152.328 67.8012 174.789 91.4909 174.789 120.729ZM130.615 88.8049C130.615 85.5465 128.12 82.8605 125 82.8605C105.201 82.8605 89.0617 99.9012 89.0617 120.905C89.0617 124.163 91.5575 126.849 94.6771 126.849C97.7551 126.849 100.292 124.207 100.292 120.905C100.292 106.462 111.398 94.7494 125 94.7494C128.12 94.7494 130.615 92.1074 130.615 88.8049ZM125 50.7165C128.078 50.7165 130.615 48.0745 130.615 44.772V23.9444C130.615 20.686 128.12 18 125 18C121.88 18 119.385 20.642 119.385 23.9444V44.772C119.385 48.0745 121.922 50.7165 125 50.7165ZM58.9052 120.685C58.9052 117.426 56.4095 114.74 53.2899 114.74H33.6154C30.5373 114.74 28 117.382 28 120.685C28 123.943 30.4957 126.629 33.6154 126.629H53.2899C56.4095 126.629 58.9052 123.987 58.9052 120.685ZM216.385 114.74H196.71C193.632 114.74 191.095 117.382 191.095 120.685C191.095 123.943 193.59 126.629 196.71 126.629H216.385C219.463 126.629 222 123.987 222 120.685C222 117.426 219.504 114.74 216.385 114.74ZM70.3439 170.178L56.4095 184.929C54.205 187.263 54.205 191.005 56.4095 193.339C57.491 194.484 58.9468 195.056 60.3611 195.056C61.7753 195.056 63.2311 194.484 64.3126 193.339L78.247 178.588C80.4515 176.254 80.4515 172.512 78.247 170.178C76.084 167.844 72.5069 167.844 70.3439 170.178ZM175.705 72.9531C177.119 72.9531 178.575 72.3807 179.656 71.2358L193.59 56.4848C195.795 54.151 195.795 50.4082 193.59 48.0745C191.386 45.7407 187.85 45.7407 185.646 48.0745L171.711 62.8255C169.507 65.1593 169.507 68.9021 171.711 71.2358C172.834 72.3807 174.249 72.9531 175.705 72.9531ZM70.3439 71.1918C71.4254 72.3366 72.8812 72.9091 74.2954 72.9091C75.7097 72.9091 77.1655 72.3366 78.247 71.1918C80.4515 68.858 80.4515 65.1152 78.247 62.7815L64.3126 48.0305C62.1081 45.6967 58.5725 45.6967 56.3679 48.0305C54.1634 50.3642 54.1634 54.107 56.3679 56.4407L70.3439 71.1918ZM179.656 170.178C177.452 167.844 173.916 167.844 171.711 170.178C169.507 172.512 169.507 176.254 171.711 178.588L185.646 193.339C186.727 194.484 188.183 195.056 189.597 195.056C191.012 195.056 192.467 194.484 193.549 193.339C195.753 191.005 195.753 187.263 193.549 184.929L179.656 170.178Z" fill="white"/>
</svg>
